<svg width="800" height="800" viewBox="0 0 800 800" fill="none" xmlns="http://www.w3.org/2000/svg">
<path d="M800 611.837H0V612.237H800V611.837Z" fill="#E6E6E6"/>
<path d="M199.722 636.045H146.726V636.445H199.722V636.045Z" fill="#E6E6E6"/>
<path d="M129.955 636.045H99.2463V636.445H129.955V636.045Z" fill="#E6E6E6"/>
<path d="M336.886 641.933H306.179V642.333H336.886V641.933Z" fill="#E6E6E6"/>
<path d="M496.986 650.866H427.877V651.266H496.986V650.866Z" fill="#E6E6E6"/>
<path d="M413.632 650.866H403.499V651.266H413.632V650.866Z" fill="#E6E6E6"/>
<path d="M725.349 641.933H575.467V642.333H725.349V641.933Z" fill="#E6E6E6"/>
<path d="M379.222 540.48H70.264C65.2288 540.48 61.1312 536.382 61.1312 531.347V97.056C61.1312 92.0208 65.2288 87.9232 70.264 87.9232H379.222C384.256 87.9232 388.354 92.0208 388.354 97.056V531.347C388.354 536.382 384.256 540.48 379.222 540.48ZM70.264 88.3248C65.448 88.3248 61.5312 92.2416 61.5312 97.0576V531.349C61.5312 536.165 65.448 540.082 70.264 540.082H379.222C384.037 540.082 387.954 536.165 387.954 531.349V97.056C387.954 92.2416 384.037 88.3232 379.222 88.3232L70.264 88.3248Z" fill="#E6E6E6"/>
<path d="M725.296 540.48H416.339C411.306 540.48 407.208 536.382 407.208 531.347V97.056C407.208 92.0208 411.306 87.9232 416.339 87.9232H725.296C730.333 87.9232 734.429 92.0208 734.429 97.056V531.347C734.43 536.382 730.333 540.48 725.296 540.48ZM416.339 88.3248C411.525 88.3248 407.608 92.2416 407.608 97.0576V531.349C407.608 536.165 411.525 540.082 416.339 540.082H725.296C730.112 540.082 734.029 536.165 734.029 531.349V97.056C734.029 92.2416 730.112 88.3232 725.296 88.3232L416.339 88.3248Z" fill="#E6E6E6"/>
<path d="M427.838 475.163H392.656V614.738H427.838V475.163Z" fill="#E0E0E0"/>
<path d="M421.157 614.739H427.838V595.731H414.15L421.157 614.739Z" fill="#FAFAFA"/>
<path d="M273.67 475.163H238.488V614.738H273.67V475.163Z" fill="#E0E0E0"/>
<path d="M427.84 475.163H267.839V603.075H427.84V475.163Z" fill="#FAFAFA"/>
<path d="M422.037 481.451V515.293H273.64V481.451H422.037ZM422.654 480.834H273.021V515.912H422.654V480.834Z" fill="#E0E0E0"/>
<path d="M274.52 614.739H267.839V595.731H281.526L274.52 614.739Z" fill="#FAFAFA"/>
<path d="M344.299 498.371C344.299 500.325 345.883 501.91 347.838 501.91C349.792 501.91 351.378 500.326 351.378 498.371C351.378 496.418 349.794 494.832 347.838 494.832C345.885 494.834 344.299 496.418 344.299 498.371Z" fill="#E6E6E6"/>
<path d="M422.037 522.198V556.04H273.64V522.198H422.037ZM422.654 521.581H273.021V556.659H422.654V521.581Z" fill="#E0E0E0"/>
<path d="M344.299 539.118C344.299 541.072 345.883 542.658 347.838 542.658C349.792 542.658 351.378 541.074 351.378 539.118C351.378 537.163 349.794 535.579 347.838 535.579C345.885 535.581 344.299 537.165 344.299 539.118Z" fill="#E6E6E6"/>
<path d="M422.037 562.946V596.787H273.64V562.946H422.037ZM422.654 562.328H273.021V597.406H422.654V562.328Z" fill="#E0E0E0"/>
<path d="M344.299 579.867C344.299 581.821 345.883 583.406 347.838 583.406C349.792 583.406 351.378 581.822 351.378 579.867C351.378 577.912 349.794 576.328 347.838 576.328C345.885 576.328 344.299 577.912 344.299 579.867Z" fill="#E6E6E6"/>
<path d="M252.176 394.106H216.994V614.739H252.176V394.106Z" fill="#E0E0E0"/>
<path d="M245.494 614.739H252.176V595.731H238.488L245.494 614.739Z" fill="#FAFAFA"/>
<path d="M120.683 394.106H85.5009V614.739H120.683V394.106Z" fill="#E0E0E0"/>
<path d="M252.176 394.106H114.853V603.075H252.176V394.106Z" fill="#FAFAFA"/>
<path d="M246.264 400.022V447.334H120.765V400.022H246.264ZM246.992 399.294H120.037V448.064H246.992V399.294Z" fill="#E0E0E0"/>
<path d="M246.264 453.085V578.582H186.486V453.085H246.264ZM246.992 452.357H185.757V579.314H246.992V452.357Z" fill="#E0E0E0"/>
<path d="M180.542 453.085V578.582H120.765V453.085H180.542ZM181.272 452.357H120.037V579.314H181.272V452.357Z" fill="#E0E0E0"/>
<path d="M121.535 614.739H114.853V595.731H128.541L121.535 614.739Z" fill="#FAFAFA"/>
<path d="M179.976 423.678C179.976 425.634 181.56 427.218 183.515 427.218C185.469 427.218 187.054 425.634 187.054 423.678C187.054 421.725 185.47 420.139 183.515 420.139C181.56 420.141 179.976 421.725 179.976 423.678Z" fill="#E6E6E6"/>
<path d="M192.645 512.842C192.645 514.795 194.229 516.381 196.184 516.381C198.139 516.381 199.723 514.797 199.723 512.842C199.723 510.888 198.139 509.302 196.184 509.302C194.229 509.302 192.645 510.886 192.645 512.842Z" fill="#E6E6E6"/>
<path d="M167.306 512.842C167.306 514.795 168.89 516.381 170.845 516.381C172.798 516.381 174.384 514.797 174.384 512.842C174.384 510.888 172.8 509.302 170.845 509.302C168.891 509.302 167.306 510.886 167.306 512.842Z" fill="#E6E6E6"/>
<path d="M163.32 332.59H148.478C148.478 332.59 151.054 346.31 151.054 354.384C151.054 362.458 139.765 394.106 155.899 394.106C172.032 394.106 160.744 362.456 160.744 354.384C160.742 346.309 163.32 332.59 163.32 332.59Z" fill="#E0E0E0"/>
<path d="M106.885 365.037V374.68C106.885 385.363 115.626 394.104 126.31 394.104H135.954C146.637 394.104 155.378 385.363 155.378 374.68V365.037H106.885Z" fill="#F5F5F5"/>
<path d="M313.067 454.824C313.067 466.011 325.597 475.165 340.91 475.165H354.733C370.048 475.165 382.578 466.011 382.578 454.824H313.067Z" fill="#E0E0E0"/>
<path d="M679.37 438.448C670.986 445.291 659.414 457.822 648.811 475.453C641.749 487.194 637.493 499.496 635.624 515.749C635.664 497.35 635.722 477.582 635.786 458.926C637.915 454.125 642.779 443.061 646.269 434.318C657.912 405.149 662.248 397.976 672.72 372.816C686.686 339.258 700.998 299.438 696.901 302.621C688.55 309.104 656.549 369.027 653.09 377.605C641.192 407.109 637.878 428.614 635.819 449.368C635.883 431.845 635.952 415.755 636.019 403.341C636.234 362.848 636.923 349.779 637.259 345.749C638.554 343.701 640.083 341.314 640.973 340.027C648.49 329.158 651.389 319.899 658.472 303.688C668.509 280.717 677.152 239.933 674.626 241.99C664.104 250.555 655.805 268.97 644.899 292.434C633.995 315.898 637.112 329.39 634.949 349.43C634.494 353.363 634.147 368.203 633.896 388.771C631.067 366.859 625.762 352.419 616.082 339.298C604.174 323.158 592.656 312.256 584.205 306.562C575.754 300.869 598.798 340.514 609.819 357.818C619.634 373.227 628.674 386.826 633.771 400.218C633.501 428.093 633.376 463.392 633.376 496.25C630.848 481.296 626.72 465.195 621.213 452.726C614.595 437.746 604.414 414.768 596.31 406.974C594.363 405.102 604.784 449.79 611.47 461.674C618.158 473.557 623.067 484.755 627.277 491.491C628.259 493.062 631.517 499.123 633.378 502.608C633.395 542.72 633.6 578.115 633.949 590.163H635.682C635.563 587.054 635.544 566.65 635.581 539.643C639.754 524.979 649.298 508.246 657.173 492.981C665.77 476.315 687.755 431.603 679.37 438.448Z" fill="#E0E0E0"/>
<path d="M659.904 614.739H609.755L605.969 565.581H663.69L659.904 614.739Z" fill="#F0F0F0"/>
<path d="M667.427 571.309H602.232L600.365 554.723H669.294L667.427 571.309Z" fill="#F5F5F5"/>
<path d="M198.816 120.795H109.133V219.274H198.816V120.795Z" fill="#E0E0E0"/>
<path d="M208.53 120.795H115.893V219.274H208.53V120.795Z" fill="#F5F5F5"/>
<path d="M200.768 211.512L200.768 128.556H123.652L123.652 211.512H200.768Z" fill="white"/>
<path d="M182.076 191.407V148.665H142.345V191.407H182.076Z" fill="#F5F5F5"/>
<path d="M656.082 132.275H572.77V223.758H656.082V132.275Z" fill="#E0E0E0"/>
<path d="M665.106 132.275H579.05V223.758H665.106V132.275Z" fill="#F5F5F5"/>
<path d="M657.896 216.55V139.486H586.259V216.55H657.896Z" fill="white"/>
<path d="M622.077 200.366C634.42 200.366 644.426 190.361 644.426 178.018C644.426 165.675 634.42 155.669 622.077 155.669C609.734 155.669 599.728 165.675 599.728 178.018C599.728 190.361 609.734 200.366 622.077 200.366Z" fill="#F5F5F5"/>
<path d="M291.982 179.515H225.454V252.568H291.982V179.515Z" fill="#E0E0E0"/>
<path d="M299.19 179.515H230.47V252.568H299.19V179.515Z" fill="#F5F5F5"/>
<path d="M293.433 246.812V185.273H236.228V246.812H293.433Z" fill="white"/>
<path d="M264.83 200.485L249.186 227.584H280.475L264.83 200.485Z" fill="#F5F5F5"/>
<path d="M400 684.098C571.331 684.098 710.222 675.986 710.222 665.981C710.222 655.975 571.331 647.864 400 647.864C228.669 647.864 89.7776 655.975 89.7776 665.981C89.7776 675.986 228.669 684.098 400 684.098Z" fill="#F5F5F5"/>
<path d="M558.794 261.491L542.923 255.056C542.923 255.056 521.979 293.253 515.981 295.181C507.818 297.805 490.936 305.099 480.904 306.466C479.552 308.046 477.322 313.032 477.534 314.85C490.994 319.338 520.562 313.378 526.891 308.678C541.32 297.96 558.794 261.491 558.794 261.491Z" fill="#E58A7B"/>
<path d="M563.68 252.824C566.632 263.766 550.602 285.746 550.602 285.746L529.542 273.933C529.542 273.933 533.469 264.898 538.275 255.696C546.037 240.837 560.309 240.336 563.68 252.824Z" fill="#B65EEC"/>
<path opacity="0.2" d="M563.68 252.824C566.632 263.766 550.602 285.746 550.602 285.746L529.542 273.933C529.542 273.933 533.469 264.898 538.275 255.696C546.037 240.837 560.309 240.336 563.68 252.824Z" fill="black"/>
<path opacity="0.2" d="M537.939 278.637L546.21 283.274L547.656 257.888C542.856 261.587 539.451 272.718 537.939 278.637Z" fill="black"/>
<path d="M549.859 244.581C549.859 244.581 533.509 280.958 543.042 348.704C562.456 348.704 598.027 348.704 607.474 348.704C608.498 338.813 605.112 290.563 617.384 243.96C617.384 243.96 606.469 241.744 595.974 241.237C587.765 240.84 575.861 240.578 568.584 241.238C558.99 242.109 549.859 244.581 549.859 244.581Z" fill="#B65EEC"/>
<path opacity="0.2" d="M549.859 244.581C549.859 244.581 533.509 280.958 543.042 348.704C562.456 348.704 598.027 348.704 607.474 348.704C608.498 338.813 605.112 290.563 617.384 243.96C617.384 243.96 606.469 241.744 595.974 241.237C587.765 240.84 575.861 240.578 568.584 241.238C558.99 242.109 549.859 244.581 549.859 244.581Z" fill="black"/>
<path d="M534.917 667.427C534.816 669.146 559.245 670.538 589.48 670.538C619.715 670.538 644.307 669.146 644.408 667.427C644.509 665.709 620.08 664.317 589.845 664.317C559.61 664.315 535.018 665.709 534.917 667.427Z" fill="#E8ECF1"/>
<path d="M579.426 624.252L567.96 628.67L577.792 654.189L589.258 649.772L579.426 624.252Z" fill="#E58A7B"/>
<path d="M628.882 655.126H616.835L612.416 627.229H624.462L628.882 655.126Z" fill="#E58A7B"/>
<path d="M616.061 653.731H629.595C630.088 653.731 630.494 654.074 630.573 654.554L632.325 665.261C632.507 666.371 631.573 667.422 630.435 667.403C625.715 667.322 623.435 667.045 617.485 667.045C613.824 667.045 606.258 667.426 601.2 667.426C596.254 667.426 595.776 662.426 597.874 661.973C607.274 659.942 610.934 657.142 614.062 654.472C614.626 653.99 615.341 653.731 616.061 653.731Z" fill="#263238"/>
<path d="M575.955 649.514L588.789 645.782C589.269 645.643 589.763 645.85 589.976 646.28L594.731 655.874C595.224 656.867 594.642 658.115 593.528 658.419C588.88 659.688 585.755 660.482 579.936 662.173C575.915 663.341 571.826 665.245 567.853 666.512C565.102 667.389 558.643 667.424 555.298 667.424C550.352 667.424 549.25 662.21 551.37 661.971C556.734 661.37 557.454 661.648 560.416 660.163C565.312 657.707 569.099 655.674 573.338 651.234C574.077 650.462 574.942 649.808 575.955 649.514Z" fill="#263238"/>
<path d="M482.933 306.35L469.677 300.773L464.219 315.458C464.219 315.458 471.869 316.845 480.605 315.458L482.933 306.35Z" fill="#E58A7B"/>
<path d="M459.826 300.413L459.475 310.184L464.219 315.458L469.677 300.773L459.826 300.413Z" fill="#E58A7B"/>
<path d="M579.469 624.224L568.001 628.65L573.078 641.802L584.546 637.375L579.469 624.224Z" fill="#CF6F64"/>
<path d="M624.466 627.237H612.414L614.699 641.616H626.75L624.466 627.237Z" fill="#CF6F64"/>
<path opacity="0.2" d="M540.997 330.379C541.227 333.274 541.507 336.232 541.851 339.274L589.763 323.72C597.245 321.483 603.755 316.781 608.195 310.354C608.376 306.078 608.622 301.59 608.984 296.904C609.149 294.619 609.346 292.283 609.56 289.917C609.79 287.451 610.053 284.934 610.349 282.403L540.997 330.379Z" fill="black"/>
<path d="M556.64 277.901L555.008 277.707C555.958 269.723 561.918 263.413 568.214 263.563L568.166 265.208C562.731 265.05 557.494 270.741 556.64 277.901Z" fill="white"/>
<path d="M565.165 292.675C565.075 292.675 564.986 292.674 564.894 292.672L564.942 291.027C570.445 291.229 575.614 285.493 576.469 278.333L578.101 278.528C577.163 286.398 571.392 292.675 565.165 292.675Z" fill="white"/>
<path d="M595.069 210.395C592.824 219.208 590.154 235.355 595.974 241.235C595.974 241.235 591.909 250.174 575.533 250.174C560.568 250.174 568.584 241.235 568.584 241.235C578.549 238.888 578.723 231.597 577.413 224.749L595.069 210.395Z" fill="#E58A7B"/>
<path d="M587.87 216.253L577.421 224.744C577.736 226.365 577.96 228.008 577.981 229.605C581.035 232.646 587.166 224.941 587.795 221.01C588.107 219.051 588.136 217.166 587.87 216.253Z" fill="#CF6F64"/>
<path d="M559.462 210.286C560.994 213.029 563.696 214.736 566.25 215.304C570.091 216.16 572.022 212.626 570.963 209.069C570.01 205.867 566.862 201.565 563.002 202.302C559.198 203.03 557.71 207.15 559.462 210.286Z" fill="#CF6F64"/>
<path d="M565.802 182.08C559.818 184.822 557.709 208.594 565.232 212.109C572.755 215.622 577.136 176.888 565.802 182.08Z" fill="#263238"/>
<path d="M596.894 197.133C595.462 209.066 595.227 216.088 588.842 222.213C579.235 231.426 564.826 225.962 562.677 214.05C560.742 203.328 563.41 185.614 575.37 180.866C587.152 176.187 598.326 185.2 596.894 197.133Z" fill="#E58A7B"/>
<path d="M577.238 188.264C586.09 186 592.605 184.458 590.28 191.846C587.182 201.69 583.467 211.226 588.451 211.67C591.482 211.941 604.923 206.237 603.216 200.47C601.73 195.446 607.978 194.091 609.13 191.53C613.278 182.304 601.424 183.502 603.533 177.92C605.587 172.485 593.982 163.299 587.552 167.787C577.144 175.053 559.256 174.949 568.661 163.032C575.395 154.498 563.379 156.25 563.379 156.25C563.379 156.25 570.637 160.555 558.421 167.211C545.47 174.264 557.325 193.358 577.238 188.264Z" fill="#263238"/>
<path d="M601.514 210.286C599.659 213.029 596.758 214.736 594.138 215.304C590.195 216.16 588.68 212.626 590.155 209.069C591.485 205.867 595.136 201.565 598.91 202.302C602.627 203.03 603.632 207.15 601.514 210.286Z" fill="#E58A7B"/>
<path d="M543.042 348.704C543.042 348.704 532.227 445.499 531.382 482.235C530.506 520.446 568.035 639.666 568.035 639.666L587.253 631.595C587.253 631.595 564.877 522.678 567.986 485.15C571.374 444.24 585.395 348.702 585.395 348.702H543.042V348.704Z" fill="#B65EEC"/>
<path opacity="0.2" d="M569.918 375.282C561.302 393.17 567.107 428.536 571.776 449.501C573.552 434.702 575.656 418.64 577.662 403.776C577.466 380.922 575.69 363.28 569.918 375.282Z" fill="black"/>
<path d="M586.384 625.322C586.474 625.285 588.662 631.446 588.662 631.446L566.512 640.747L563.022 634.259L586.384 625.322Z" fill="#B65EEC"/>
<path d="M565.898 348.704C565.898 348.704 574.171 440.765 579.654 475.254C585.659 513.022 609.246 638.832 609.246 638.832H631.31C631.31 638.832 618.09 516.072 615.592 478.678C612.882 438.093 607.472 348.704 607.472 348.704H565.898Z" fill="#B65EEC"/>
<path d="M631.648 633.083C631.742 633.083 632.386 639.25 632.386 639.25H608.135L606.403 632.171L631.648 633.083Z" fill="#B65EEC"/>
<path opacity="0.2" d="M623.195 625.795C623.091 625.795 623.003 625.717 622.992 625.613C622.872 624.496 610.95 513.666 608.707 480.069C606.274 443.61 601.379 362.77 601.33 361.957C601.323 361.843 601.41 361.746 601.522 361.739C601.526 361.739 601.531 361.739 601.535 361.739C601.642 361.739 601.735 361.824 601.741 361.933C601.789 362.744 606.683 443.584 609.118 480.04C611.36 513.63 623.28 624.453 623.4 625.568C623.413 625.682 623.331 625.782 623.219 625.794C623.21 625.795 623.202 625.795 623.195 625.795Z" fill="black"/>
<path d="M578.598 200.469C578.541 201.44 577.981 202.229 577.346 202.229C576.71 202.229 576.242 201.442 576.299 200.469C576.355 199.498 576.917 198.709 577.552 198.709C578.187 198.709 578.656 199.498 578.598 200.469Z" fill="#263238"/>
<path d="M567.616 200.469C567.558 201.44 566.998 202.229 566.363 202.229C565.728 202.229 565.259 201.442 565.317 200.469C565.374 199.498 565.934 198.709 566.57 198.709C567.205 198.709 567.674 199.498 567.616 200.469Z" fill="#263238"/>
<path d="M571.078 200.952C571.078 200.952 568.541 206.558 565.949 209.262C567.574 210.867 570.539 210.133 570.539 210.133L571.078 200.952Z" fill="#DF5753"/>
<path d="M571.358 214.21C571.202 214.21 571.08 214.082 571.09 213.925C571.099 213.768 571.235 213.64 571.392 213.64C575.658 213.64 577.822 210.661 577.845 210.63C577.941 210.499 578.12 210.461 578.245 210.547C578.371 210.634 578.398 210.81 578.304 210.942C578.208 211.074 575.93 214.21 571.358 214.21Z" fill="#263238"/>
<path d="M580.552 197.514C580.387 197.578 580.202 197.568 580.048 197.47C577.949 196.149 575.992 197.035 575.973 197.046C575.704 197.184 575.347 197.064 575.227 196.779C575.107 196.494 575.248 196.154 575.539 196.018C575.643 195.968 578.093 194.856 580.698 196.496C580.958 196.661 581.022 197.011 580.843 197.28C580.77 197.389 580.666 197.469 580.552 197.514Z" fill="#263238"/>
<path d="M563.37 194.322C563.291 194.299 563.214 194.259 563.152 194.198C562.928 193.99 562.928 193.63 563.152 193.394C565.386 191.034 567.974 191.394 568.083 191.41C568.387 191.443 568.59 191.746 568.525 192.058C568.459 192.368 568.158 192.582 567.851 192.538C567.765 192.525 565.744 192.267 563.96 194.15C563.802 194.32 563.57 194.379 563.37 194.322Z" fill="#263238"/>
<path d="M623.568 259.707L606.923 255.277C606.923 255.277 590.603 295.45 584.838 298.072C576.994 301.642 557.131 313.987 548.69 319.941C548.221 321.931 548.589 327.237 549.651 328.682C564.005 326.074 591.619 315.458 597.378 310.061C610.507 297.758 623.568 259.707 623.568 259.707Z" fill="#E58A7B"/>
<path d="M611.954 655.835C611.037 655.835 610.189 655.678 609.67 655.222C609.259 654.859 609.091 654.35 609.17 653.714C609.227 653.238 609.491 653.013 609.706 652.907C611.064 652.226 614.822 654.61 615.246 654.885C615.339 654.947 615.384 655.061 615.36 655.174C615.334 655.286 615.245 655.378 615.131 655.403C614.282 655.605 613.067 655.835 611.954 655.835ZM610.31 653.342C610.162 653.342 610.035 653.365 609.936 653.414C609.858 653.454 609.763 653.528 609.738 653.749C609.682 654.203 609.787 654.542 610.064 654.786C610.69 655.341 612.258 655.414 614.328 655.002C613.013 654.214 611.234 653.342 610.31 653.342Z" fill="#B65EEC"/>
<path d="M615.064 655.411C615.018 655.411 614.971 655.4 614.93 655.378C613.722 654.699 611.467 652.061 611.802 650.717C611.861 650.474 612.066 650.053 612.754 649.97C613.203 649.914 613.602 650.038 613.947 650.334C615.28 651.478 615.363 654.955 615.366 655.102C615.37 655.206 615.314 655.307 615.222 655.363C615.173 655.395 615.118 655.411 615.064 655.411ZM612.92 650.528C612.878 650.528 612.835 650.533 612.79 650.538C612.418 650.582 612.374 650.754 612.357 650.826C612.158 651.619 613.578 653.614 614.762 654.555C614.68 653.539 614.414 651.512 613.562 650.779C613.365 650.61 613.155 650.528 612.92 650.528Z" fill="#B65EEC"/>
<path d="M569.467 653.845C568.29 654.13 567.166 654.214 566.45 653.826C565.994 653.579 565.731 653.166 565.67 652.605C565.634 652.269 565.747 651.976 565.995 651.757C567.285 650.61 572.504 651.843 573.096 651.987C573.211 652.016 573.293 652.115 573.298 652.237C573.302 652.358 573.232 652.472 573.118 652.525C572.15 652.963 570.774 653.528 569.467 653.845ZM566.866 651.944C566.646 651.997 566.474 652.072 566.36 652.173C566.259 652.262 566.222 652.365 566.238 652.512C566.28 652.893 566.446 653.158 566.744 653.322C567.594 653.784 569.566 653.418 572.106 652.355C570.322 651.981 567.989 651.67 566.866 651.944Z" fill="#B65EEC"/>
<path d="M573.066 652.541C573.026 652.55 572.986 652.55 572.946 652.546C571.395 652.258 568.083 650.418 568.053 649.04C568.045 648.718 568.197 648.277 568.955 648.014C569.506 647.808 570.072 647.85 570.603 648.11C572.342 648.968 573.251 652.04 573.29 652.17C573.317 652.266 573.291 652.371 573.221 652.45C573.178 652.496 573.123 652.526 573.066 652.541ZM569.282 648.499C569.227 648.512 569.171 648.531 569.114 648.549C568.618 648.723 568.622 648.926 568.622 648.994C568.642 649.819 570.941 651.339 572.565 651.851C572.242 650.968 571.464 649.186 570.325 648.624C569.982 648.454 569.638 648.413 569.282 648.499Z" fill="#B65EEC"/>
<path d="M550.045 318.995L533.36 326.675L531.424 331.382L537.59 335.531C537.59 335.531 549.098 334.278 552.376 326.885L550.045 318.995Z" fill="#E58A7B"/>
<path d="M550.755 328.954C549.712 322.755 547.674 319.928 547.654 319.901L550.285 317.928C550.387 318.064 552.805 321.328 553.998 328.408L550.755 328.954Z" fill="#263238"/>
<path d="M553.597 321.266C554.138 322.605 553.269 324.218 551.654 324.87C550.04 325.523 548.294 324.966 547.754 323.627C547.213 322.288 548.082 320.675 549.696 320.022C551.309 319.371 553.056 319.926 553.597 321.266Z" fill="#263238"/>
<path d="M522.086 332.877L524.302 335.122L539.274 328.718L533.36 326.677L522.086 332.877Z" fill="#E58A7B"/>
<path opacity="0.2" d="M586.384 625.322C586.474 625.285 588.662 631.446 588.662 631.446L566.512 640.747L563.022 634.259L586.384 625.322Z" fill="black"/>
<path opacity="0.2" d="M631.648 633.083C631.742 633.083 632.386 639.25 632.386 639.25H608.135L606.403 632.171L631.648 633.083Z" fill="black"/>
<path d="M627.906 255.102C632.307 269.29 615.17 288.67 615.17 288.67L591.413 278.974C591.413 278.974 594.76 268.667 601.13 254.858C608.371 239.163 623.462 240.784 627.906 255.102Z" fill="#B65EEC"/>
<path opacity="0.2" d="M627.906 255.102C632.307 269.29 615.17 288.67 615.17 288.67L591.413 278.974C591.413 278.974 594.76 268.667 601.13 254.858C608.371 239.163 623.462 240.784 627.906 255.102Z" fill="black"/>
<path d="M391.798 112.912H381.579V114.557H391.798V112.912Z" fill="#BA68C8"/>
<path d="M524.164 178.129L522.928 205.583L524.569 205.657L525.806 178.203L524.164 178.129Z" fill="#BA68C8"/>
<path d="M520.981 120.31H332.182L314.606 513.461H503.405L520.981 120.31Z" fill="#BA68C8"/>
<path opacity="0.56" d="M515.344 125.706H326.546L308.971 518.856H497.77L515.344 125.706Z" fill="#FAFAFA"/>
<path opacity="0.07" d="M509.707 131.101H320.91L303.334 524.251H492.133L509.707 131.101Z" fill="#BA68C8"/>
<path d="M488.218 302.57H327.07L325.725 332.659H486.874L488.218 302.57Z" fill="white"/>
<path d="M415.704 280.624H328.051L327.45 294.086H415.101L415.704 280.624Z" fill="#BA68C8"/>
<path d="M484.589 383.758H323.44L322.094 413.848H483.243L484.589 383.758Z" fill="white"/>
<path opacity="0.47" d="M455.037 454.458H346.671L345.059 490.52H453.424L455.037 454.458Z" fill="#BA68C8"/>
<path d="M447.789 496.106H339.424C339.373 496.106 339.323 496.083 339.286 496.046C339.251 496.01 339.232 495.958 339.235 495.907L340.848 459.845C340.851 459.742 340.936 459.662 341.037 459.662H449.402C449.453 459.662 449.502 459.685 449.539 459.722C449.574 459.758 449.594 459.81 449.59 459.861L447.978 495.923C447.974 496.026 447.89 496.106 447.789 496.106ZM339.622 495.725H447.606L449.2 460.043H341.216L339.622 495.725Z" fill="white"/>
<path d="M396.765 361.814H324.421L323.819 375.277H396.162L396.765 361.814Z" fill="#BA68C8"/>
<path d="M452.97 205.406C452.566 214.416 449.301 222.736 444.066 229.494C436.16 239.738 423.778 246.397 410.147 246.397C396.517 246.397 384.746 239.738 377.757 229.494C373.126 222.736 370.605 214.418 371.008 205.406C372.021 182.766 391.189 164.418 413.813 164.418C436.453 164.416 453.981 182.766 452.97 205.406Z" fill="white"/>
<path d="M456.824 172.997C456.717 175.39 455.85 177.602 454.458 179.397C452.357 182.118 449.067 183.888 445.445 183.888C441.822 183.888 438.696 182.118 436.838 179.397C435.608 177.602 434.938 175.39 435.045 172.997C435.314 166.981 440.408 162.106 446.419 162.106C452.435 162.106 457.093 166.981 456.824 172.997Z" fill="#BA68C8"/>
<path d="M344.424 317.614C344.306 320.277 342.05 322.435 339.387 322.435C336.725 322.435 334.662 320.277 334.781 317.614C334.899 314.952 337.155 312.794 339.818 312.794C342.482 312.792 344.544 314.952 344.424 317.614Z" fill="#263238"/>
<path d="M366.003 317.614C365.885 320.277 363.629 322.435 360.966 322.435C358.304 322.435 356.242 320.277 356.36 317.614C356.478 314.952 358.734 312.794 361.397 312.794C364.059 312.794 366.123 314.952 366.003 317.614Z" fill="#263238"/>
<path d="M387.584 317.614C387.466 320.277 385.21 322.435 382.547 322.435C379.885 322.435 377.822 320.277 377.941 317.614C378.059 314.952 380.315 312.794 382.978 312.794C385.64 312.792 387.703 314.952 387.584 317.614Z" fill="#263238"/>
<path d="M340.795 398.803C340.677 401.466 338.421 403.624 335.758 403.624C333.096 403.624 331.034 401.466 331.152 398.803C331.27 396.141 333.526 393.981 336.189 393.981C338.851 393.982 340.914 396.141 340.795 398.803Z" fill="#263238"/>
<path d="M362.374 398.803C362.256 401.466 360 403.624 357.338 403.624C354.675 403.624 352.613 401.466 352.731 398.803C352.85 396.141 355.106 393.981 357.768 393.981C360.432 393.982 362.493 396.141 362.374 398.803Z" fill="#263238"/>
<path d="M383.954 398.803C383.835 401.466 381.579 403.624 378.917 403.624C376.255 403.624 374.192 401.466 374.311 398.803C374.429 396.141 376.685 393.981 379.347 393.981C382.01 393.981 384.074 396.141 383.954 398.803Z" fill="#263238"/>
<path d="M405.535 398.803C405.416 401.466 403.16 403.624 400.498 403.624C397.835 403.624 395.773 401.466 395.891 398.803C396.01 396.141 398.266 393.981 400.928 393.981C403.591 393.982 405.653 396.141 405.535 398.803Z" fill="#263238"/>
<path d="M427.114 398.803C426.995 401.466 424.739 403.624 422.077 403.624C419.414 403.624 417.352 401.466 417.47 398.803C417.589 396.141 419.845 393.981 422.507 393.981C425.17 393.982 427.232 396.141 427.114 398.803Z" fill="#263238"/>
<path d="M429.178 191.706C428.768 200.861 421.014 208.283 411.858 208.283C402.702 208.283 395.611 200.861 396.021 191.706C396.43 182.549 404.184 175.128 413.341 175.128C422.496 175.128 429.587 182.55 429.178 191.706Z" fill="#BA68C8"/>
<path d="M444.066 229.493C436.16 239.736 423.778 246.395 410.147 246.395C396.517 246.395 384.746 239.736 377.757 229.493C385.534 221.749 397.845 216.718 411.475 216.718C425.12 216.718 436.981 221.749 444.066 229.493Z" fill="#BA68C8"/>
<path opacity="0.1" d="M429.178 191.706C428.768 200.861 421.014 208.283 411.858 208.283C402.702 208.283 395.611 200.861 396.021 191.706C396.43 182.549 404.184 175.128 413.341 175.128C422.496 175.128 429.587 182.55 429.178 191.706Z" fill="white"/>
<path opacity="0.1" d="M444.066 229.493C436.16 239.736 423.778 246.395 410.147 246.395C396.517 246.395 384.746 239.736 377.757 229.493C385.534 221.749 397.845 216.718 411.475 216.718C425.12 216.718 436.981 221.749 444.066 229.493Z" fill="white"/>
<path d="M208.651 339.909C207.136 343.232 205.541 346.888 204.141 350.454C202.73 354.054 201.322 357.658 200.094 361.312C197.71 368.621 195.475 375.997 194.374 383.394L194.01 385.749C193.981 386.032 194.002 386.435 194.126 386.941C194.36 387.957 194.994 389.317 195.885 390.651C197.686 393.35 200.24 396.083 202.994 398.621C205.741 401.198 208.725 403.664 211.826 406.005C214.896 408.366 218.134 410.678 221.302 412.845L218.32 418.459C210.707 415.131 203.618 411.152 196.75 406.158C193.374 403.586 190.04 400.816 187.086 397.072C185.63 395.184 184.198 393.051 183.261 390.235C182.806 388.83 182.49 387.242 182.488 385.523C182.499 385.128 182.52 384.573 182.547 384.307L182.626 383.512L182.786 381.922C183.656 373.44 185.534 365.288 188.01 357.381C189.258 353.432 190.589 349.523 192.109 345.688C193.661 341.827 195.192 338.122 197.133 334.235L208.651 339.909Z" fill="#E58A7B"/>
<path d="M219.062 411.891L230.368 406.155L227.448 418.581C227.448 418.581 219.685 420.749 216.074 416.982L219.062 411.891Z" fill="#E58A7B"/>
<path d="M240.722 408.195L237.714 418.467L227.446 418.582L230.368 406.155L240.722 408.195Z" fill="#E58A7B"/>
<path d="M256.691 280.002C256.691 280.002 257.672 283.608 259.227 286.326C257.891 287.574 256.691 287.141 256.691 287.141V280.002Z" fill="#DF5753"/>
<path d="M256.357 280.096C257.019 280.096 257.555 279.275 257.555 278.262C257.555 277.25 257.019 276.429 256.357 276.429C255.695 276.429 255.158 277.25 255.158 278.262C255.158 279.275 255.695 280.096 256.357 280.096Z" fill="#263238"/>
<path d="M256.064 276.485L258.496 275.784C258.496 275.784 257.248 277.685 256.064 276.485Z" fill="#263238"/>
<path d="M225.435 291.738C226.896 299.186 228.354 312.834 223.141 317.803C223.141 317.803 225.178 325.358 239.018 325.358C254.237 325.358 246.291 317.803 246.291 317.803C237.986 315.819 238.2 309.658 239.646 303.87L225.435 291.738Z" fill="#E58A7B"/>
<path d="M221.397 274.787C222.16 287.222 222.218 292.501 228.499 298.883C237.946 308.483 253.051 304.826 256.019 292.414C258.69 281.242 256.992 262.784 244.821 257.835C232.827 252.96 220.632 262.352 221.397 274.787Z" fill="#E58A7B"/>
<path d="M222.622 260.717C216.387 262.99 208.069 261.299 211.333 280.546C214.789 300.925 209.469 307.629 209.469 307.629C209.469 307.629 233.136 312.67 257.296 307.328C257.296 307.328 249.92 294.429 251.99 285.016C254.63 273.011 252.538 268.574 252.538 268.574C252.538 268.574 231.39 257.52 222.622 260.717Z" fill="#263238"/>
<path d="M249.024 281.267C248.998 283.731 249.862 286.213 250.982 287.936C252.667 290.53 254.667 289.474 255.168 286.781C255.619 284.358 255.285 280.09 253.126 278.434C251.002 276.805 249.054 278.451 249.024 281.267Z" fill="#E58A7B"/>
<path d="M217.206 262.894C215.406 257.862 223.957 250.123 242.034 253.342C260.11 256.562 260.904 271.595 260.904 271.595L257.246 267.254L257.411 271.826L238.834 275.395L217.206 262.894Z" fill="#263238"/>
<path d="M218.739 318.65C218.49 317.112 219.523 315.664 221.059 315.411C226.688 314.482 239.482 312.6 245.922 313.491C250.706 314.154 251.971 316.947 252.173 319.232C252.323 320.926 250.922 322.355 249.223 322.278L221.4 321.021C220.064 320.96 218.952 319.971 218.739 318.65Z" fill="#6A1B9A"/>
<path opacity="0.6" d="M218.739 318.65C218.49 317.112 219.523 315.664 221.059 315.411C226.688 314.482 239.482 312.6 245.922 313.491C250.706 314.154 251.971 316.947 252.173 319.232C252.323 320.926 250.922 322.355 249.223 322.278L221.4 321.021C220.064 320.96 218.952 319.971 218.739 318.65Z" fill="black"/>
<path d="M234.816 598.179L245.128 605.338L262.395 581.936L252.083 574.778L234.816 598.179Z" fill="#E58A7B"/>
<path d="M210.744 597.706L221.653 603.918L236.934 579.168L226.027 572.957L210.744 597.706Z" fill="#E58A7B"/>
<path d="M262.387 581.941L253.49 594.005L243.174 586.843L252.072 574.779L262.387 581.941Z" fill="#CF6F64"/>
<path d="M226.021 572.962L236.933 579.176L229.05 591.931L218.138 585.717L226.021 572.962Z" fill="#CF6F64"/>
<path d="M243.517 396.781C243.517 396.781 283.805 447.557 276.246 496.112C270.141 535.331 234.786 588.437 234.786 588.437L218.162 580.174C218.162 580.174 236.224 544.882 248.085 507.469C253.059 491.779 250.939 474.494 241.64 460.914C221.232 431.106 188.536 448.842 210.53 396.782L243.517 396.781Z" fill="#6A1B9A"/>
<path opacity="0.6" d="M243.517 396.781C243.517 396.781 283.805 447.557 276.246 496.112C270.141 535.331 234.786 588.437 234.786 588.437L218.162 580.174C218.162 580.174 236.224 544.882 248.085 507.469C253.059 491.779 250.939 474.494 241.64 460.914C221.232 431.106 188.536 448.842 210.53 396.782L243.517 396.781Z" fill="black"/>
<path opacity="0.4" d="M263.278 429.408L257.426 423.587C257.426 424.048 268.771 494.074 271.96 513.754C273.883 507.72 275.363 501.768 276.251 496.112C279.95 472.338 272.173 448.021 263.278 429.408Z" fill="black"/>
<path d="M261.51 396.781C261.51 396.781 310.021 460.589 311.386 498.853C312.53 530.914 258.546 592.845 258.546 592.845L242.874 582.706C242.874 582.706 274.44 538.678 282.387 502.688C279.357 467.064 214.32 396.779 214.32 396.779H261.51V396.781Z" fill="#6A1B9A"/>
<path opacity="0.6" d="M261.51 396.781C261.51 396.781 310.021 460.589 311.386 498.853C312.53 530.914 258.546 592.845 258.546 592.845L242.874 582.706C242.874 582.706 274.44 538.678 282.387 502.688C279.357 467.064 214.32 396.779 214.32 396.779H261.51V396.781Z" fill="black"/>
<path d="M201.493 320.656C196.298 321.882 191.333 340.741 191.333 340.741L211.594 354.266C211.594 354.266 218.346 339.36 215.989 332.83C213.533 326.03 208.053 319.109 201.493 320.656Z" fill="#6A1B9A"/>
<path opacity="0.2" d="M205.458 332.79L204.042 349.221L211.584 354.269C211.584 354.269 215.118 346.459 216.171 339.653L205.458 332.79Z" fill="black"/>
<path d="M267.509 321.019C267.509 321.019 273.488 323.125 261.51 396.781C241.28 396.781 220.373 396.781 210.53 396.781C211.386 376.032 211.41 363.237 201.493 320.656C201.493 320.656 212.174 318.333 223.141 317.803C231.72 317.39 238.749 317.115 246.291 317.805C256.234 318.712 267.509 321.019 267.509 321.019Z" fill="#6A1B9A"/>
<path d="M272.686 332.715C273.842 335.907 275.064 339.36 276.336 342.675C277.557 346.04 278.824 349.398 280.131 352.742L284.054 362.792L285.047 365.304L285.544 366.56L285.794 367.187C285.837 367.299 285.829 367.29 285.813 367.278C285.744 367.248 285.685 366.931 284.693 366.28C284.206 365.978 283.39 365.686 282.603 365.67C281.811 365.642 281.184 365.835 280.824 365.992C280.102 366.336 280.091 366.485 280.107 366.461C280.154 366.437 280.302 366.294 280.466 366.098C281.165 365.258 282.01 363.81 282.75 362.37C283.507 360.902 284.222 359.334 284.934 357.744C286.35 354.555 287.639 351.227 288.949 347.894C290.245 344.552 291.466 341.16 292.675 337.758L296.317 327.547L302.482 329.101C301.262 336.405 299.685 343.558 297.805 350.738C296.887 354.334 295.824 357.901 294.61 361.501C294.005 363.304 293.328 365.102 292.55 366.936C291.742 368.784 290.941 370.606 289.51 372.723C289.134 373.259 288.709 373.826 288.115 374.45C287.488 375.064 286.763 375.806 285.2 376.509C284.422 376.843 283.341 377.139 282.093 377.09C280.85 377.054 279.589 376.613 278.717 376.072C276.944 374.939 276.331 373.861 275.806 373.051C275.563 372.645 275.355 372.226 275.211 371.923L274.907 371.302L274.299 370.061L273.09 367.576C271.509 364.246 269.96 360.899 268.493 357.515C267.04 354.123 265.624 350.712 264.251 347.275C262.938 343.786 261.638 340.405 260.482 336.693L272.686 332.715Z" fill="#E58A7B"/>
<path d="M267.509 321.019C273.637 322.478 280.522 340.584 280.522 340.584L262.31 356.102C262.31 356.102 250.507 336.36 252.896 329.842C255.382 323.053 259.504 319.112 267.509 321.019Z" fill="#6A1B9A"/>
<path d="M299.162 321.902L305.554 316.557L310 323.483L306.725 329.267C306.725 329.267 301.509 334.042 296.891 331.613C295.4 328.232 296.326 324.274 299.162 321.902Z" fill="#E58A7B"/>
<path d="M317.155 316.573L316.677 318.315L306.55 320.016L305.552 316.557L317.155 316.573Z" fill="#E58A7B"/>
<path d="M259.843 593.685L241.573 581.867L244.845 576.178L265.378 588.8L259.843 593.685Z" fill="#6A1B9A"/>
<path d="M228.773 603.082C227.32 603.082 225.408 602.16 224.25 601.517C224.146 601.459 224.086 601.346 224.099 601.226C224.11 601.109 224.192 601.01 224.304 600.971C224.797 600.816 229.131 599.488 230.358 600.518C230.552 600.682 230.768 600.982 230.699 601.483C230.61 602.147 230.306 602.616 229.797 602.869C229.502 603.016 229.154 603.082 228.773 603.082ZM225.174 601.336C227.162 602.347 228.762 602.72 229.531 602.338C229.859 602.174 230.048 601.869 230.112 601.403C230.146 601.152 230.058 601.042 229.976 600.974C229.331 600.432 226.928 600.854 225.174 601.336Z" fill="#263238"/>
<path d="M224.395 601.552C224.315 601.552 224.238 601.52 224.182 601.462C224.109 601.386 224.082 601.277 224.11 601.174C224.152 601.027 225.15 597.552 226.794 596.76C227.232 596.55 227.677 596.539 228.112 596.72C228.803 597.011 228.872 597.517 228.848 597.79C228.736 599.229 225.803 601.216 224.466 601.542C224.443 601.549 224.419 601.552 224.395 601.552ZM227.496 597.189C227.349 597.189 227.2 597.226 227.05 597.298C226.07 597.77 225.248 599.645 224.854 600.786C226.262 600.194 228.184 598.622 228.253 597.746C228.264 597.603 228.232 597.418 227.878 597.27C227.752 597.216 227.624 597.189 227.496 597.189Z" fill="#263238"/>
<path d="M251.629 609.995C249.827 609.995 247.315 607.68 245.941 606.258C245.853 606.166 245.832 606.03 245.888 605.917C245.946 605.805 246.09 605.741 246.192 605.755C246.826 605.837 252.39 606.589 253.176 608.16C253.326 608.464 253.314 608.787 253.139 609.096C252.845 609.614 252.418 609.912 251.872 609.981C251.794 609.99 251.712 609.995 251.629 609.995ZM246.994 606.472C249.016 608.437 250.782 609.525 251.798 609.389C252.154 609.344 252.422 609.154 252.622 608.802C252.699 608.667 252.706 608.549 252.643 608.426C252.216 607.571 249.245 606.834 246.994 606.472Z" fill="#263238"/>
<path d="M247.17 606.422C246.758 606.422 246.39 606.397 246.101 606.342C245.998 606.323 245.912 606.251 245.875 606.154C245.84 606.054 245.858 605.942 245.925 605.861C246.016 605.75 248.181 603.141 250.226 602.962C250.866 602.912 251.408 603.082 251.872 603.478C252.501 604.018 252.458 604.498 252.31 604.805C251.803 605.87 249.038 606.422 247.17 606.422ZM246.757 605.822C248.544 605.922 251.402 605.328 251.774 604.549C251.806 604.483 251.901 604.285 251.486 603.931C251.141 603.635 250.741 603.512 250.278 603.554C248.936 603.672 247.437 605.096 246.757 605.822Z" fill="#263238"/>
<path d="M224.834 599.869L211.262 596.032C210.768 595.893 210.27 596.122 210.066 596.584L205.485 606.883C205.01 607.952 205.669 609.277 206.814 609.579C211.568 610.835 213.926 611.202 219.894 612.89C223.566 613.928 228.822 615.826 233.893 617.258C238.851 618.659 240.65 613.754 238.667 612.702C229.776 607.99 229.075 604.76 226.643 601.181C226.205 600.536 225.557 600.074 224.834 599.869Z" fill="#6A1B9A"/>
<path d="M246.31 604.389L234.726 596.346C234.304 596.053 233.76 596.109 233.414 596.478L225.731 604.728C224.934 605.584 225.128 607.051 226.112 607.709C230.198 610.443 232.31 611.557 237.405 615.094C240.539 617.27 246.795 622.096 251.123 625.101C255.357 628.04 258.653 623.986 257.12 622.347C250.246 615 248.73 610.395 247.595 606.218C247.389 605.466 246.926 604.816 246.31 604.389Z" fill="#6A1B9A"/>
<path d="M236.92 589.498L216.029 579.115L218.192 573.462L240.49 584.392L236.92 589.498Z" fill="#6A1B9A"/>
<path d="M209.766 393.789L207.998 398.352C207.819 398.706 208.238 399.067 208.829 399.067H261.762C262.221 399.067 262.602 398.842 262.63 398.554L263.09 393.99C263.122 393.674 262.723 393.406 262.221 393.406H210.595C210.218 393.406 209.882 393.562 209.766 393.789Z" fill="#6A1B9A"/>
<path opacity="0.4" d="M209.766 393.789L207.998 398.352C207.819 398.706 208.238 399.067 208.829 399.067H261.762C262.221 399.067 262.602 398.842 262.63 398.554L263.09 393.99C263.122 393.674 262.723 393.406 262.221 393.406H210.595C210.218 393.406 209.882 393.562 209.766 393.789Z" fill="white"/>
<path d="M218.091 399.562H216.709C216.434 399.562 216.224 399.419 216.243 399.246L216.891 393.318C216.91 393.146 217.15 393.003 217.427 393.003H218.81C219.085 393.003 219.294 393.146 219.275 393.318L218.627 399.246C218.608 399.421 218.366 399.562 218.091 399.562Z" fill="#6A1B9A"/>
<path d="M250.742 399.562H249.36C249.085 399.562 248.875 399.419 248.894 399.246L249.542 393.318C249.562 393.146 249.802 393.003 250.078 393.003H251.461C251.736 393.003 251.946 393.146 251.926 393.318L251.278 399.246C251.259 399.421 251.018 399.562 250.742 399.562Z" fill="#6A1B9A"/>
<path d="M216.874 670.539C240.548 670.539 259.739 669.147 259.739 667.429C259.739 665.711 240.548 664.318 216.874 664.318C193.2 664.318 174.008 665.711 174.008 667.429C174.008 669.147 193.2 670.539 216.874 670.539Z" fill="#F5F5F5"/>
<path d="M242.997 663.04C235.413 660.838 227.066 658.002 221.901 654.986C221.757 654.902 221.605 654.842 221.459 654.765V620.478H236.714C239.237 620.478 241.282 618.434 241.282 615.91C241.282 613.389 239.237 611.344 236.714 611.344H221.459V454.827H212.325V611.344H197.07C194.549 611.344 192.504 613.389 192.504 615.91C192.504 618.434 194.549 620.478 197.07 620.478H212.325V654.763C212.179 654.84 212.027 654.899 211.883 654.984C206.718 658 198.371 660.837 190.787 663.038C188.299 663.76 188.824 667.426 191.414 667.426H216.891H242.368C244.96 667.427 245.485 663.762 242.997 663.04Z" fill="#E0E0E0"/>
<path d="M245.344 472.395H188.44C183.882 472.395 180.152 468.666 180.152 464.107V447.19C180.152 442.632 183.882 438.902 188.44 438.902H245.344C249.902 438.902 253.632 442.632 253.632 447.19V464.107C253.632 468.666 249.902 472.395 245.344 472.395Z" fill="#6A1B9A"/>
<path d="M187.917 472.395V475.307C187.917 477.707 190.53 479.672 193.722 479.672H240.062C243.254 479.672 245.867 477.709 245.867 475.307V472.395H187.917Z" fill="#6A1B9A"/>
<path opacity="0.3" d="M187.917 472.395V475.307C187.917 477.707 190.53 479.672 193.722 479.672H240.062C243.254 479.672 245.867 477.709 245.867 475.307V472.395H187.917Z" fill="white"/>
</svg>
